# xmcd
#
# Track frame offsets:
#	150
#	15953
#	29797
#	47983
#	68038
#	85413
#	104700
#	122435
#	138176
#	158591
#	176395
#	191426
#
# Disc length: 2797 seconds
#
# Revision: 2
# Processed by: cddbd v1.5.2PL0 Copyright (c) Steve Scherf et al.
# Submitted via: audiograbber 1.83.01
#
DISCID=980aeb0c
DTITLE=Steel Magnolia - Steel Magnolia
DYEAR=2011
DGENRE=Country
TTITLE0=Ooh La La
TTITLE1=Keep On Lovin' You
TTITLE2=Just By Being You (Halo And Wings)
TTITLE3=Edge Of Goodbye
TTITLE4=Bulletproof
TTITLE5=Not Tonight
TTITLE6=Last Night Again
TTITLE7=Without You
TTITLE8=Rainbow
TTITLE9=Eggs Over Easy
TTITLE10=Homespun Love
TTITLE11=Glass Houses
EXTD=
EXTT0=
EXTT1=
EXTT2=
EXTT3=
EXTT4=
EXTT5=
EXTT6=
EXTT7=
EXTT8=
EXTT9=
EXTT10=
EXTT11=
PLAYORDER=
